# xmcd CD database file generated by OrangeCD 6.5
#
# Track frame offsets:
#	150
#	13122
#	26892
#	39777
#	54662
#	67152
#	81827
#	95615
#	107660
#	121537
#	132470
#	144577
#
# Disc length: 2194 seconds
#
# Revision: 1
# Processed by: cddbd v1.5.2PL0 Copyright (c) Steve Scherf et al.
# Submitted via: OrangeCD 6.5
#
DISCID=a308900c
DTITLE=Willie Dixon - Little Red Rooster
DYEAR=1995
DGENRE=Chicago Blues
TTITLE0=I Just Want To Make Love To You
TTITLE1=Black Angel Blues
TTITLE2=When The Lights Go Out
TTITLE3=Pain In My Heart
TTITLE4=(I'm Your) Hoochie Coochie Man
TTITLE5=Third Degree
TTITLE6=Walkin' The Blues
TTITLE7=You Know My Love
TTITLE8=Tollin' Bells
TTITLE9=Little Red Rooster
TTITLE10=Mellow Down Easy
TTITLE11=Weak Brain, Narrow Mind
EXTD=
EXTT0=
EXTT1=
EXTT2=
EXTT3=
EXTT4=
EXTT5=
EXTT6=
EXTT7=
EXTT8=
EXTT9=
EXTT10=
EXTT11=
PLAYORDER=
